<mxfile host="65bd71144e">
    <diagram id="YJa1YVeCBQMnrFL9bhSD" name="第 1 页">
        <mxGraphModel dx="762" dy="514" grid="0" gridSize="10" guides="0" tooltips="1" connect="1" arrows="1" fold="1" page="1" pageScale="1" pageWidth="2339" pageHeight="3300" background="#FFFFFF" math="0" shadow="0">
            <root>
                <mxCell id="0"/>
                <mxCell id="1" parent="0"/>
                <mxCell id="20" value="Level0 Table1&lt;br&gt;key range: ace-dog" style="rounded=1;whiteSpace=wrap;html=1;fontSize=16;fillColor=#CEAEB9;" parent="1" vertex="1">
                    <mxGeometry x="140" y="200" width="230" height="60" as="geometry"/>
                </mxCell>
                <mxCell id="51" value="&lt;font style=&quot;font-size: 16px;&quot;&gt;MemTable&amp;nbsp; &lt;br&gt;&amp;nbsp;keys:&amp;nbsp; ace,cad...&lt;/font&gt;" style="rounded=1;whiteSpace=wrap;html=1;fillColor=#C3BAB1;" parent="1" vertex="1">
                    <mxGeometry x="140" y="110" width="220" height="60" as="geometry"/>
                </mxCell>
                <mxCell id="52" value="Level0 Table2&lt;br&gt;key range: boy-edge" style="rounded=1;whiteSpace=wrap;html=1;fontSize=16;fillColor=#CEAEB9;" parent="1" vertex="1">
                    <mxGeometry x="390" y="200" width="230" height="60" as="geometry"/>
                </mxCell>
                <mxCell id="53" value="Level0 Table3&lt;br&gt;key range: abandon-jealous" style="rounded=1;whiteSpace=wrap;html=1;fontSize=16;fillColor=#CEAEB9;" parent="1" vertex="1">
                    <mxGeometry x="640" y="200" width="230" height="60" as="geometry"/>
                </mxCell>
                <mxCell id="54" value="Level 1 Table1&amp;nbsp;&lt;br&gt;key range: abandon-ace" style="rounded=1;whiteSpace=wrap;html=1;fontSize=16;fillColor=#CEABC5;" parent="1" vertex="1">
                    <mxGeometry x="140" y="290" width="230" height="60" as="geometry"/>
                </mxCell>
                <mxCell id="55" value="Level 1 Table2&lt;br&gt;key range: boy-dog" style="rounded=1;whiteSpace=wrap;html=1;fontSize=16;fillColor=#CEABC5;" parent="1" vertex="1">
                    <mxGeometry x="390" y="290" width="230" height="60" as="geometry"/>
                </mxCell>
                <mxCell id="56" value="Level 1 Table3&lt;br&gt;key range: edge-jealout" style="rounded=1;whiteSpace=wrap;html=1;fontSize=16;fillColor=#CEABC5;" parent="1" vertex="1">
                    <mxGeometry x="640" y="290" width="230" height="60" as="geometry"/>
                </mxCell>
                <mxCell id="57" value="boy" style="text;html=1;strokeColor=none;fillColor=none;align=center;verticalAlign=middle;whiteSpace=wrap;rounded=0;strokeWidth=4;fontSize=16;fontStyle=1;fontColor=#EBC1A8;" vertex="1" parent="1">
                    <mxGeometry x="549" y="74" width="60" height="30" as="geometry"/>
                </mxCell>
                <mxCell id="58" value="" style="endArrow=classic;html=1;fontSize=16;fontColor=#EBC1A8;exitX=0.25;exitY=1;exitDx=0;exitDy=0;entryX=0.75;entryY=0;entryDx=0;entryDy=0;strokeWidth=3;" edge="1" parent="1" source="57" target="20">
                    <mxGeometry width="50" height="50" relative="1" as="geometry">
                        <mxPoint x="324" y="463" as="sourcePoint"/>
                        <mxPoint x="374" y="413" as="targetPoint"/>
                    </mxGeometry>
                </mxCell>
                <mxCell id="59" value="" style="endArrow=classic;html=1;fontSize=16;fontColor=#EBC1A8;exitX=0.75;exitY=1;exitDx=0;exitDy=0;entryX=0.25;entryY=0;entryDx=0;entryDy=0;strokeWidth=3;" edge="1" parent="1" source="57" target="53">
                    <mxGeometry width="50" height="50" relative="1" as="geometry">
                        <mxPoint x="481" y="144" as="sourcePoint"/>
                        <mxPoint x="322.5" y="210" as="targetPoint"/>
                    </mxGeometry>
                </mxCell>
                <mxCell id="60" value="" style="endArrow=classic;html=1;fontSize=16;fontColor=#EBC1A8;exitX=0.5;exitY=1;exitDx=0;exitDy=0;entryX=0.5;entryY=0;entryDx=0;entryDy=0;strokeWidth=3;" edge="1" parent="1" source="57" target="52">
                    <mxGeometry width="50" height="50" relative="1" as="geometry">
                        <mxPoint x="481" y="144" as="sourcePoint"/>
                        <mxPoint x="322.5" y="210" as="targetPoint"/>
                    </mxGeometry>
                </mxCell>
                <mxCell id="62" value="Level0 &lt;br&gt;的三个表中都可能包含 boy" style="ellipse;shape=cloud;whiteSpace=wrap;html=1;strokeColor=default;strokeWidth=4;fontSize=16;fontColor=#EBC1A8;fillColor=#FFFFFF;" vertex="1" parent="1">
                    <mxGeometry x="656" y="40" width="142" height="120" as="geometry"/>
                </mxCell>
                <mxCell id="64" value="Level1&lt;br&gt;中只有 Table2 中可能包含 boy" style="ellipse;shape=cloud;whiteSpace=wrap;html=1;strokeColor=default;strokeWidth=4;fontSize=16;fontColor=#EBC1A8;fillColor=#FFFFFF;" vertex="1" parent="1">
                    <mxGeometry x="463" y="357" width="202" height="120" as="geometry"/>
                </mxCell>
            </root>
        </mxGraphModel>
    </diagram>
</mxfile>